<svg id="Capa_1" data-name="Capa 1" xmlns="http://www.w3.org/2000/svg" viewBox="0 0 380.94 218.33"><defs><style>.cls-1{font-size:14px;fill:#e30613;stroke:#e30613;font-family:Rockwell-ExtraBold, Rockwell Extra Bold;font-weight:800;}.cls-1,.cls-2,.cls-3,.cls-4,.cls-5,.cls-6{stroke-miterlimit:10;}.cls-2,.cls-3,.cls-4{fill:#fff;}.cls-2,.cls-3{stroke:#312b6d;}.cls-2,.cls-4{stroke-width:11px;}.cls-3,.cls-5{stroke-width:6px;}.cls-4{stroke:#1d1d1b;}.cls-5,.cls-6{fill:#27348b;stroke:#312783;}.cls-6{stroke-width:12px;}</style></defs><text class="cls-1" transform="translate(100.5 196.88) rotate(20.31) scale(0.91 1)">A</text><text class="cls-1" transform="translate(112.34 201.17) rotate(17.32) scale(0.91 1)">L</text><text class="cls-1" transform="translate(123.31 204.53) rotate(14.58) scale(0.91 1)">U</text><text class="cls-1" transform="translate(134.73 207.49) rotate(11.37) scale(0.91 1)">M</text><text class="cls-1" transform="matrix(0.9, 0.14, -0.15, 0.99, 151.01, 210.6)">I</text><text class="cls-1" transform="translate(159.22 211.85) rotate(6.29) scale(0.91 1)">N</text><text class="cls-1" transform="translate(172.55 213.22) rotate(3.95) scale(0.91 1)">I</text><text class="cls-1" transform="matrix(0.91, 0.03, -0.03, 1, 180.85, 213.79)">O</text><text class="cls-1" transform="translate(194.57 214.06) rotate(-0.65) scale(0.91 1)"> </text><text class="cls-1" transform="matrix(0.91, -0.03, 0.04, 1, 198.68, 214.04)">Y</text><text class="cls-1" transform="translate(210.49 213.5) rotate(-4.13) scale(0.91 1)"> </text><text class="cls-1" transform="translate(214.88 213.22) rotate(-5.85) scale(0.91 1)">V</text><text class="cls-1" transform="matrix(0.9, -0.13, 0.14, 0.99, 226.87, 211.9)">I</text><text class="cls-1" transform="translate(235.16 210.71) rotate(-10.77) scale(0.91 1)">D</text><text class="cls-1" transform="translate(248.86 208.02) rotate(-14.1) scale(0.91 1)">R</text><text class="cls-1" transform="translate(262.2 204.54) rotate(-16.91) scale(0.91 1)">I</text><text class="cls-1" transform="matrix(0.86, -0.31, 0.34, 0.94, 270.56, 201.99)">O</text><path class="cls-2" d="M350.74,69" transform="translate(-95.96 -63.94)"/><path class="cls-2" d="M227.17,69.09" transform="translate(-95.96 -63.94)"/><line class="cls-3" x1="167.89" y1="56.11" x2="213.04" y2="56.11"/><path class="cls-4" d="M168.45,322.6" transform="translate(-95.96 -63.94)"/><line class="cls-5" x1="130.36" y1="3" x2="253.93" y2="3"/><line class="cls-5" x1="192.15" y1="3" x2="261.68" y2="165.3"/><path class="cls-5" d="M216.62,232.84c49.38.16,97.38.16,146.55,0" transform="translate(-95.96 -63.94)"/><line class="cls-3" x1="147.55" y1="93.62" x2="192.15" y2="3"/><path class="cls-6" d="M528.11,122.07" transform="translate(-95.96 -63.94)"/><path class="cls-6" d="M413,122.43" transform="translate(-95.96 -63.94)"/></svg>