<svg id="Layer_1" data-name="Layer 1" xmlns="http://www.w3.org/2000/svg" xmlns:xlink="http://www.w3.org/1999/xlink" viewBox="0 0 519.91 490.92" width="406" height="306" class="illustration styles_illustrationTablet__1DWOa"><defs><linearGradient id="linear-gradient" x1="139.23" y1="67.83" x2="248.11" y2="67.83" gradientUnits="userSpaceOnUse"><stop offset="0" stop-color="#fff" stop-opacity="0"></stop><stop offset="0.07" stop-color="#fff" stop-opacity="0.22"></stop><stop offset="0.16" stop-color="#fff" stop-opacity="0.45"></stop><stop offset="0.25" stop-color="#fff" stop-opacity="0.65"></stop><stop offset="0.33" stop-color="#fff" stop-opacity="0.8"></stop><stop offset="0.4" stop-color="#fff" stop-opacity="0.91"></stop><stop offset="0.46" stop-color="#fff" stop-opacity="0.98"></stop><stop offset="0.51" stop-color="#fff"></stop><stop offset="0.56" stop-color="#fff" stop-opacity="0.98"></stop><stop offset="0.62" stop-color="#fff" stop-opacity="0.91"></stop><stop offset="0.69" stop-color="#fff" stop-opacity="0.8"></stop><stop offset="0.76" stop-color="#fff" stop-opacity="0.65"></stop><stop offset="0.84" stop-color="#fff" stop-opacity="0.46"></stop><stop offset="0.93" stop-color="#fff" stop-opacity="0.23"></stop><stop offset="1" stop-color="#fff" stop-opacity="0"></stop></linearGradient><linearGradient id="linear-gradient-2" x1="275.34" y1="109.54" x2="340.62" y2="109.54" xlink:href="#linear-gradient"></linearGradient><linearGradient id="linear-gradient-3" x1="216.13" y1="245.25" x2="269.92" y2="61.52" gradientUnits="userSpaceOnUse"><stop offset="0" stop-color="#010101" stop-opacity="0"></stop><stop offset="0.95" stop-color="#010101"></stop></linearGradient><linearGradient id="linear-gradient-4" x1="155.94" y1="280.38" x2="357.48" y2="280.38" xlink:href="#linear-gradient"></linearGradient><linearGradient id="linear-gradient-5" x1="250.72" y1="161.08" x2="249.67" y2="200.97" xlink:href="#linear-gradient-3"></linearGradient><linearGradient id="linear-gradient-6" x1="229.38" y1="248.9" x2="267.81" y2="248.9" gradientUnits="userSpaceOnUse"><stop offset="0" stop-color="#fff" stop-opacity="0"></stop><stop offset="0.95" stop-color="#fff"></stop></linearGradient><linearGradient id="linear-gradient-7" x1="278.87" y1="285.3" x2="308.18" y2="285.3" xlink:href="#linear-gradient-6"></linearGradient><linearGradient id="linear-gradient-9" x1="293.38" y1="276.16" x2="294.67" y2="314.15" xlink:href="#linear-gradient-6"></linearGradient><linearGradient id="linear-gradient-10" x1="273.69" y1="290.81" x2="520.68" y2="283.96" xlink:href="#linear-gradient-3"></linearGradient><linearGradient id="linear-gradient-11" x1="233.48" y1="283.31" x2="237.75" y2="325.36" xlink:href="#linear-gradient-6"></linearGradient><linearGradient id="linear-gradient-12" x1="261.08" y1="225.56" x2="312.73" y2="329.73" xlink:href="#linear-gradient-3"></linearGradient><linearGradient id="linear-gradient-13" x1="251.32" y1="309.34" x2="463.5" y2="268.78" xlink:href="#linear-gradient-3"></linearGradient><linearGradient id="linear-gradient-14" x1="242.09" y1="257.51" x2="178.91" y2="371.07" xlink:href="#linear-gradient-3"></linearGradient><linearGradient id="linear-gradient-15" x1="401.85" y1="383.12" x2="372.44" y2="390.38" xlink:href="#linear-gradient-3"></linearGradient><linearGradient id="linear-gradient-16" x1="356.57" y1="392.97" x2="314.66" y2="386.92" xlink:href="#linear-gradient-3"></linearGradient><linearGradient id="linear-gradient-17" x1="348.12" y1="323.65" x2="357.79" y2="197.63" xlink:href="#linear-gradient-3"></linearGradient></defs><title>Recycle 3</title><path d="M130.65,115.64c-26.52,32.41-67.8,51.39-90.16,86.8a105.83,105.83,0,0,0-13.6,78.89c4,17.54,12.39,33.83,16.4,51.37,9.16,40.08-4.62,86.07,17.58,120.68,25.25,39.36,81.09,41.1,127.78,38.46L404,479.67c14.31-.81,28.69-1.63,42.65-4.85,45.65-10.53,83.81-48.51,94.55-94.1,7.65-32.46,1.21-69-20.84-94C511,276,498.91,267.47,491.56,255.26c-16.72-27.77-4-63.19-5.66-95.57-1.75-35-22.2-68.46-52.51-86C402.06,55.56,365,54.46,331.08,44.13c-26.13-8-48.58-25.51-74.48-33C188.5-8.45,163.82,75.09,130.65,115.64Z" transform="translate(-24.39 -1.72)" fill="#3db447" opacity="0.24" style="isolation: isolate;"></path><path d="M241.55,63.75c-9.65-18-26.87-30.89-45.19-39.91S158.27,9.12,139.23,1.72c1.07,21.92,2.91,44,9.19,65s17.33,41.13,34.26,55.09c7.84,6.46,17.25,11.64,27.4,12.07C247.77,135.5,255.68,90.13,241.55,63.75Z" transform="translate(-24.39 -1.72)" fill="#3db447"></path><path d="M295.47,92.67c12.93-10,29.13-14.67,45.15-17.85a157.21,157.21,0,0,0-13.18,32.53c-1.83,6.57-3.26,13.3-6.07,19.52s-7.24,12-13.45,14.83c-10.08,4.58-31.61,4-32.52-10.43C274.47,116.29,284.05,101.49,295.47,92.67Z" transform="translate(-24.39 -1.72)" fill="#3db447"></path><path d="M241.55,63.75c-9.65-18-26.87-30.89-45.19-39.91S158.27,9.12,139.23,1.72c1.07,21.92,2.91,44,9.19,65s17.33,41.13,34.26,55.09c7.84,6.46,17.25,11.64,27.4,12.07C247.77,135.5,255.68,90.13,241.55,63.75Z" transform="translate(-24.39 -1.72)" opacity="0.65" fill="url(#linear-gradient)"></path><path d="M295.47,92.67c12.93-10,29.13-14.67,45.15-17.85a157.21,157.21,0,0,0-13.18,32.53c-1.83,6.57-3.26,13.3-6.07,19.52s-7.24,12-13.45,14.83c-10.08,4.58-31.61,4-32.52-10.43C274.47,116.29,284.05,101.49,295.47,92.67Z" transform="translate(-24.39 -1.72)" opacity="0.65" fill="url(#linear-gradient-2)"></path><polygon points="159.28 157.18 318.7 156.11 308.39 167 322.96 179.04 148.08 179.04 175.81 169.44 159.28 157.18" fill="#3db447"></polygon><polygon points="322.95 179.03 148.09 179.03 175.82 169.46 159.29 157.18 220.56 156.75 239.1 156.62 318.7 156.1 308.39 167.01 322.95 179.03" fill="url(#linear-gradient-3)"></polygon><path d="M155.94,375.91l20.26-77.85-3.73-117.3H347.35l-8,106.64s18.12,88.51,18.12,91.7S155.94,375.91,155.94,375.91Z" transform="translate(-24.39 -1.72)" fill="#3db447"></path><path d="M155.94,375.91l20.26-77.85-3.73-117.3H347.35l-8,106.64s18.12,88.51,18.12,91.7S155.94,375.91,155.94,375.91Z" transform="translate(-24.39 -1.72)" opacity="0.65" fill="url(#linear-gradient-4)"></path><polygon points="159.28 157.18 158.48 175.45 175.81 169.44 159.28 157.18" fill="#3db447"></polygon><polygon points="318.7 156.11 319.4 176.36 308.39 167 318.7 156.11" fill="#3db447"></polygon><path d="M308.78,109.44c-7.25,13.66-21.55,21.69-33.4,31.6-4.76,4-8.93,10.26-11.89,17.3a56.18,56.18,0,0,0-4.55,22.41H245.63c-.34-7.34,0-17.73-.69-22.28a4.18,4.18,0,0,0-.08-.73c-2.28-12-8.59-26.83-14.94-37.22-10.31-17-19.36-31.25-33.62-45,30.36,16,49.85,58.82,55.86,79.81C270.45,137.39,289.89,124.73,308.78,109.44Z" transform="translate(-24.39 -1.72)" fill="#606161"></path><path d="M308.78,109.44c-7.25,13.66-21.55,21.69-33.4,31.6-4.76,4-8.93,10.26-11.89,17.3a56.18,56.18,0,0,0-4.55,22.41H245.63c-.34-7.34,0-17.73-.69-22.28a4.18,4.18,0,0,0-.08-.73c-2.28-12-8.59-26.83-14.94-37.22-10.31-17-19.36-31.25-33.62-45,30.36,16,49.85,58.82,55.86,79.81C270.45,137.39,289.89,124.73,308.78,109.44Z" transform="translate(-24.39 -1.72)" fill="url(#linear-gradient-5)"></path><path d="M228.92,256.71l18,10.77s13.6-29.33,20.46-30.87c0,0-18.69-2.6-23.42-.83S228.92,256.71,228.92,256.71Z" transform="translate(-24.39 -1.72)" fill="#3db447"></path><path d="M257.62,250a4.09,4.09,0,0,1,3.47,2.05c1,2.05,3.07,6.31,3.07,6.31l-5.91,3.78L279,263l9.46-17.9-5.91,2.21s-6.41-12.32-13.64-10C263.46,239.05,257.62,250,257.62,250Z" transform="translate(-24.39 -1.72)" fill="#3db447"></path><path d="M296.43,266l-18,10.69s19.33,25.92,17.42,32.68c0,0,11.18-15.19,11.87-20.2S296.43,266,296.43,266Z" transform="translate(-24.39 -1.72)" fill="#3db447"></path><path d="M288.67,294.46a4.09,4.09,0,0,1-3.45,2.08c-2.29-.08-7-.3-7-.3l-.52-7-10.63,17.83L278.3,323.9l.88-6.25s13.88.23,15.29-7.23C295.54,304.81,288.67,294.46,288.67,294.46Z" transform="translate(-24.39 -1.72)" fill="#3db447"></path><path d="M250.84,321.84,252.68,301s-32.33.57-36.71-4.93c0,0,5.82,17.94,9.48,21.43S250.84,321.84,250.84,321.84Z" transform="translate(-24.39 -1.72)" fill="#3db447"></path><path d="M228.92,256.71l18,10.77s13.6-29.33,20.46-30.87c0,0-18.69-2.6-23.42-.83S228.92,256.71,228.92,256.71Z" transform="translate(-24.39 -1.72)" fill="#3db447"></path><path d="M296.43,266l-18,10.69s19.33,25.92,17.42,32.68c0,0,11.18-15.19,11.87-20.2S296.43,266,296.43,266Z" transform="translate(-24.39 -1.72)" fill="#3db447"></path><path d="M250.84,321.84,252.68,301s-32.33.57-36.71-4.93c0,0,5.82,17.94,9.48,21.43S250.84,321.84,250.84,321.84Z" transform="translate(-24.39 -1.72)" fill="#3db447"></path><path d="M232.28,299a4.12,4.12,0,0,1,.33-4c1.4-1.82,4.34-5.52,4.34-5.52l6,3.67-8.27-19-20.23-.7L219,277.7s-8.29,11.14-3.06,16.64C219.88,298.48,232.28,299,232.28,299Z" transform="translate(-24.39 -1.72)" fill="#3db447"></path><path d="M257.62,250a4.09,4.09,0,0,1,3.47,2.05c1,2.05,3.07,6.31,3.07,6.31l-5.91,3.78L279,263l9.46-17.9-5.91,2.21s-6.41-12.32-13.64-10C263.46,239.05,257.62,250,257.62,250Z" transform="translate(-24.39 -1.72)" fill="#3db447"></path><path d="M288.67,294.46a4.09,4.09,0,0,1-3.45,2.08c-2.29-.08-7-.3-7-.3l-.52-7-10.63,17.83L278.3,323.9l.88-6.25s13.88.23,15.29-7.23C295.54,304.81,288.67,294.46,288.67,294.46Z" transform="translate(-24.39 -1.72)" fill="#3db447"></path><path d="M232.28,299a4.12,4.12,0,0,1,.33-4c1.4-1.82,4.34-5.52,4.34-5.52l6,3.67-8.27-19-20.23-.7L219,277.7s-8.29,11.14-3.06,16.64C219.88,298.48,232.28,299,232.28,299Z" transform="translate(-24.39 -1.72)" fill="#3db447"></path><path d="M257.62,250a4.09,4.09,0,0,1,3.47,2.05c1,2.05,3.07,6.31,3.07,6.31l-5.91,3.78L279,263l9.46-17.9-5.91,2.21s-6.41-12.32-13.64-10C263.46,239.05,257.62,250,257.62,250Z" transform="translate(-24.39 -1.72)" fill="#3db447"></path><path d="M288.67,294.46a4.09,4.09,0,0,1-3.45,2.08c-2.29-.08-7-.3-7-.3l-.52-7-10.63,17.83L278.3,323.9l.88-6.25s13.88.23,15.29-7.23C295.54,304.81,288.67,294.46,288.67,294.46Z" transform="translate(-24.39 -1.72)" fill="#3db447"></path><path d="M232.28,299a4.12,4.12,0,0,1,.33-4c1.4-1.82,4.34-5.52,4.34-5.52l6,3.67-8.27-19-20.23-.7L219,277.7s-8.29,11.14-3.06,16.64C219.88,298.48,232.28,299,232.28,299Z" transform="translate(-24.39 -1.72)" fill="#3db447"></path><path d="M229.38,254.3l18,10.76s13.6-29.33,20.46-30.87c0,0-18.68-2.6-23.42-.83S229.38,254.3,229.38,254.3Z" transform="translate(-24.39 -1.72)" fill="url(#linear-gradient-6)"></path><path d="M258.07,247.6a4.09,4.09,0,0,1,3.47,2c1,2.05,3.08,6.31,3.08,6.31l-5.92,3.79,20.74.86,9.46-17.89-5.91,2.2s-6.41-12.32-13.64-10C263.91,236.64,258.07,247.6,258.07,247.6Z" transform="translate(-24.39 -1.72)" fill="#3db447"></path><path d="M296.89,263.61l-18,10.69s19.32,25.92,17.41,32.69c0,0,11.18-15.2,11.87-20.21S296.89,263.61,296.89,263.61Z" transform="translate(-24.39 -1.72)" fill="url(#linear-gradient-7)"></path><path d="M289.13,292a4.12,4.12,0,0,1-3.46,2.08c-2.29-.07-7-.3-7-.3l-.51-7-10.63,17.83,11.24,16.84.87-6.26s13.88.23,15.3-7.23C296,302.39,289.13,292,289.13,292Z" transform="translate(-24.39 -1.72)" fill="#3db447"></path><path d="M251.3,319.42l1.83-20.87s-32.32.57-36.7-4.93c0,0,5.81,17.95,9.48,21.43S251.3,319.42,251.3,319.42Z" transform="translate(-24.39 -1.72)" fill="#3db447"></path><path d="M229.38,254.3l18,10.76s13.6-29.33,20.46-30.87c0,0-18.68-2.6-23.42-.83S229.38,254.3,229.38,254.3Z" transform="translate(-24.39 -1.72)" fill="url(#linear-gradient-6)"></path><path d="M296.89,263.61l-18,10.69s19.32,25.92,17.41,32.69c0,0,11.18-15.2,11.87-20.21S296.89,263.61,296.89,263.61Z" transform="translate(-24.39 -1.72)" fill="url(#linear-gradient-9)"></path><path d="M292.47,268.44c2.62,3.23,6.26,5.43,9.53,8a5.6,5.6,0,0,1,1.51,1.56c.62,1.11.47,2.46.6,3.72.32,2.92,2.22,5.39,4.05,7.69l17.41,21.9a49.31,49.31,0,0,0,7.7,8.3c1.85,1.46,4.05,2.7,6.4,2.59a2.1,2.1,0,0,0,1.67-.7,2.49,2.49,0,0,0,.33-1.32q.4-7.46.37-14.92a.85.85,0,0,0-.74-1,82.6,82.6,0,0,1-7.94-3.38,22,22,0,0,1-6.25-4.11,27,27,0,0,1-4.05-6.08A106,106,0,0,0,309.66,271a56.81,56.81,0,0,0-14.49-11.89c-.93-.51-3.1-2.14-4.17-2-1.32.13-1.43,1.91-1.5,3.08A12.41,12.41,0,0,0,292.47,268.44Z" transform="translate(-24.39 -1.72)" fill="url(#linear-gradient-10)"></path><path d="M251.3,319.42l1.83-20.87s-32.32.57-36.7-4.93c0,0,5.81,17.95,9.48,21.43S251.3,319.42,251.3,319.42Z" transform="translate(-24.39 -1.72)" fill="url(#linear-gradient-11)"></path><path d="M232.74,296.53a4.09,4.09,0,0,1,.33-4c1.39-1.81,4.33-5.52,4.33-5.52l6,3.67-8.28-19-20.23-.7,4.57,4.35s-8.29,11.14-3,16.65C220.33,296.06,232.74,296.53,232.74,296.53Z" transform="translate(-24.39 -1.72)" fill="#3db447"></path><path d="M258.07,247.6a4.09,4.09,0,0,1,3.47,2c1,2.05,3.08,6.31,3.08,6.31l-5.92,3.79,20.74.86,9.46-17.89-5.91,2.2s-6.41-12.32-13.64-10C263.91,236.64,258.07,247.6,258.07,247.6Z" transform="translate(-24.39 -1.72)" fill="#3db447"></path><path d="M289.13,292a4.12,4.12,0,0,1-3.46,2.08c-2.29-.07-7-.3-7-.3l-.51-7-10.63,17.83,11.24,16.84.87-6.26s13.88.23,15.3-7.23C296,302.39,289.13,292,289.13,292Z" transform="translate(-24.39 -1.72)" fill="#3db447"></path><path d="M232.74,296.53a4.09,4.09,0,0,1,.33-4c1.39-1.81,4.33-5.52,4.33-5.52l6,3.67-8.28-19-20.23-.7,4.57,4.35s-8.29,11.14-3,16.65C220.33,296.06,232.74,296.53,232.74,296.53Z" transform="translate(-24.39 -1.72)" fill="#3db447"></path><path d="M258.07,247.6a4.09,4.09,0,0,1,3.47,2c1,2.05,3.08,6.31,3.08,6.31l-5.92,3.79,20.74.86,9.46-17.89-5.91,2.2s-6.41-12.32-13.64-10C263.91,236.64,258.07,247.6,258.07,247.6Z" transform="translate(-24.39 -1.72)" fill="url(#linear-gradient-12)"></path><path d="M289.13,292a4.12,4.12,0,0,1-3.46,2.08c-2.29-.07-7-.3-7-.3l-.51-7-10.63,17.83,11.24,16.84.87-6.26s13.88.23,15.3-7.23C296,302.39,289.13,292,289.13,292Z" transform="translate(-24.39 -1.72)" fill="url(#linear-gradient-13)"></path><path d="M232.74,296.53a4.09,4.09,0,0,1,.33-4c1.39-1.81,4.33-5.52,4.33-5.52l6,3.67-8.28-19-20.23-.7,4.57,4.35s-8.29,11.14-3,16.65C220.33,296.06,232.74,296.53,232.74,296.53Z" transform="translate(-24.39 -1.72)" fill="url(#linear-gradient-14)"></path><path d="M398.45,440.36l11.15,18.72a9.92,9.92,0,0,0,7.55-10.15l-9.7-18" transform="translate(-24.39 -1.72)" fill="#f0decd"></path><path d="M409.6,459.08s-3.1,13.53-7.54,15.13,6.21-.53,8.27-2.62S415.4,455,415.4,455" transform="translate(-24.39 -1.72)" fill="#f0decd"></path><path d="M324.19,445.34,322.59,465a9,9,0,0,0,10.88-3.51l2.28-18.32" transform="translate(-24.39 -1.72)" fill="#f0decd"></path><path d="M322.59,465s-11.91,10.84-16,9.69,7.39.37,10-.09,15.78-8.39,15.78-8.39" transform="translate(-24.39 -1.72)" fill="#f0decd"></path><path d="M333.55,460.81s2.72,2.72,2.41,5-1.45,12-1.45,12a2.37,2.37,0,0,1-1.74-.16c-.88-.46-.72-10.59-2.53-7.87-3.41,5.11-2.27,7-10.06,8.22-2.17.33-23-1.9-10.74-4.8,0,0,7.65.56,10.93-2.75S329.25,460,333.55,460.81Z" transform="translate(-24.39 -1.72)" fill="#3db447"></path><path d="M341,199.81c-.08,1-.87,13.09.09,18.22s4.26,12.13,8.46,11.18,6.06-2.37,6.07,0a50.86,50.86,0,0,1-.9,7s5.16,3.72,9.82,2.29a8,8,0,0,0,5.59-5.16s-2.35-2.8-1.45-10.28,7.83-23.86-2-31.76C360.66,186.49,342.11,185.66,341,199.81Z" transform="translate(-24.39 -1.72)" fill="#f0decd"></path><path d="M316.71,267.48s-2.41-9.24-5.53-11.26-4.22-3.55-4.92-3,.56,2.55.56,2.55,2.33,2.22.74,2.48-12.91-6.89-16.1-6.62-1.25,5-2.07,7.09,7.11,7.68,10.31,9.45,7.48,4.88,9.53,6S316.78,270.23,316.71,267.48Z" transform="translate(-24.39 -1.72)" fill="#f0decd"></path><path d="M391.22,329.56l-2.81,45.38,27.94,69.27s1.07,6.65-12.37,8.73L366.9,379.49l-7.61-56.36" transform="translate(-24.39 -1.72)" fill="#606161"></path><path d="M391.22,329.56l-2.81,45.38,27.94,69.27s1.07,6.65-12.37,8.73L366.9,379.49l-7.61-56.36" transform="translate(-24.39 -1.72)" fill="url(#linear-gradient-15)"></path><path d="M341.74,325.26,319.82,457.48s4.51,5.25,18.05,2.06l12.6-59.09L380,331.59S360.46,313.7,341.74,325.26Z" transform="translate(-24.39 -1.72)" fill="#606161"></path><path d="M341.74,325.26,319.82,457.48s4.51,5.25,18.05,2.06l12.6-59.09L380,331.59S360.46,313.7,341.74,325.26Z" transform="translate(-24.39 -1.72)" fill="url(#linear-gradient-16)"></path><path d="M363,233.4s-8.85.94-12.34,5.46c-5.74,7.44-16.25,49.95-16.25,49.95l-17.74-21.33s-9.31-1.09-9.79,9.57c0,0,20.3,27.66,28.21,33.86s17.75-5.25,20.28-11.55S365,255.81,365,255.81,368.83,234.83,363,233.4Z" transform="translate(-24.39 -1.72)" fill="#3db447"></path><path d="M374.41,236.28c8.21,10.17,15.82,83,17.93,87.66,0,0-13.68,5.74-34.8,7.14a55.46,55.46,0,0,1-17.24-1.78s9.13-60.57,9.39-69.11,4.08-24,4.08-24S367.9,228.22,374.41,236.28Z" transform="translate(-24.39 -1.72)" fill="#3db447"></path><path d="M341,329.48s-3.31,8.55-2.47,8.82,9.12-4.29,11.69-2.77,10.15,9.35,20.24,11.4,20.39-5.89,20.81-11.71,1.09-11.28,1.09-11.28S347.26,332.38,341,329.48Z" transform="translate(-24.39 -1.72)" fill="#f2fbff"></path><path d="M356.66,268.7s-7.36,35.66-9.35,39.68-4.62,3.87-4.62,3.87l-2.12,17.69,14.1.4Z" transform="translate(-24.39 -1.72)" fill="url(#linear-gradient-17)"></path><path d="M418.29,447.83s-1.92,1.09-2.87,5.48-3.38,15.35-5.89,16.58-3.46-.05-4.13,0-5.63,5.28-5.37,5.79.72.78,4.44,0,10.74-3.44,10.92-4.52,1.93-10.66,3.62-10.81.35,10.22.95,10.29,1.48.21,1.58-.95,1.72-13.46,1.11-16.34S420.64,448.75,418.29,447.83Z" transform="translate(-24.39 -1.72)" fill="#3db447"></path><path d="M336.84,195.93c-.87,3.15-.56,7.15,2.25,8.81,1.51.9,3.38.88,5.14.84,2.09-.05,4.6-.37,5.48-2.27l.35,2.74,6.25-.12c4.26,4.89-2.43,13.54,1.52,18.69,1.19,1.56,3.35,2.8,3.13,4.76a6.32,6.32,0,0,1-1.27,2.5,8.17,8.17,0,0,0,10.08,11.9,7.23,7.23,0,0,1,2.07-.74c1.71-.16,3.1,1.4,3.77,3s1,3.37,2.1,4.68c2.39,2.85,6.92,2,10.44.8a7.58,7.58,0,0,0,3.32-1.86,5.89,5.89,0,0,0,1.14-4.37c-.35-4.21-3-7.82-5.24-11.38s-4.35-7.71-3.46-11.83c.53-2.43,2-4.55,2.67-6.95a10,10,0,0,0-2.16-9c-2.25-2.54-5.86-4-7.14-7.13-1.21-3,.1-6.59-1.26-9.51-1.25-2.7-4.45-4-7.42-4a13.86,13.86,0,0,1-4.37-.31,13.71,13.71,0,0,1-2.6-1.48C352.08,177.78,339.53,186.3,336.84,195.93Z" transform="translate(-24.39 -1.72)" fill="#606161"></path><path d="M127,461.07c-7.11.6-15.39,2-18.75,8.27-3.54,6.63.94,15.24,7.52,18.85s14.48,3.56,22,3.41l287.7-5.48c25.94-.49,56.33-3.39,69.93-25.49,2.07-3.38,3.65-7.54,2.27-11.25-2.05-5.51-9.07-6.91-14.93-7.41-57.84-4.92-125.8-10.51-182.11,5.87C246.64,463.56,183.26,456.3,127,461.07Z" transform="translate(-24.39 -1.72)" fill="#3db447" opacity="0.24" style="isolation: isolate;"></path></svg>